<svg xmlns="http://www.w3.org/2000/svg" xmlns:xlink="http://www.w3.org/1999/xlink" width="500" zoomAndPan="magnify" viewBox="0 0 375 374.999991" height="500" preserveAspectRatio="xMidYMid meet" version="1.0"><defs><g/><clipPath id="72d3381c09"><rect x="0" width="168" y="0" height="286"/></clipPath><clipPath id="c25616820d"><path d="M 14 65 L 254.800781 65 L 254.800781 324 L 14 324 Z M 14 65 " clip-rule="nonzero"/></clipPath><clipPath id="9bf0ef2bf0"><rect x="0" width="255" y="0" height="375"/></clipPath><clipPath id="e9bf0809b7"><path d="M 0 141.238281 L 375 141.238281 L 375 187.5 L 0 187.5 Z M 0 141.238281 " clip-rule="nonzero"/></clipPath><clipPath id="2335abfe19"><path d="M 0 0.238281 L 375 0.238281 L 375 46.5 L 0 46.5 Z M 0 0.238281 " clip-rule="nonzero"/></clipPath><clipPath id="127bd1330a"><rect x="0" width="375" y="0" height="47"/></clipPath><clipPath id="3813b80915"><rect x="0" width="220" y="0" height="47"/></clipPath></defs><rect x="-37.5" width="450" fill="#ffffff" y="-37.499999" height="449.999989" fill-opacity="1"/><rect x="-37.5" width="450" fill="#ffffff" y="-37.499999" height="449.999989" fill-opacity="1"/><g transform="matrix(1, 0, 0, 1, 135, 55)"><g clip-path="url(#72d3381c09)"><g fill="#141414" fill-opacity="1"><g transform="translate(0.912608, 214.489599)"><g><path d="M 24.46875 -152.546875 C 24.46875 -163.171875 27.03125 -171.992188 32.15625 -179.015625 C 37.28125 -186.035156 43.96875 -191.488281 52.21875 -195.375 C 60.476562 -199.257812 69.539062 -201.628906 79.40625 -202.484375 C 89.269531 -203.335938 99.039062 -202.816406 108.71875 -200.921875 C 118.394531 -199.023438 127.164062 -195.894531 135.03125 -191.53125 C 142.90625 -187.164062 148.835938 -181.664062 152.828125 -175.03125 L 152.828125 -145.140625 C 145.617188 -159.753906 137.269531 -171.140625 127.78125 -179.296875 C 118.289062 -187.453125 108.519531 -193 98.46875 -195.9375 C 88.414062 -198.882812 78.832031 -199.691406 69.71875 -198.359375 C 60.613281 -197.035156 52.742188 -194.097656 46.109375 -189.546875 C 40.597656 -185.929688 36.847656 -181.375 34.859375 -175.875 C 32.867188 -170.375 33.4375 -164.160156 36.5625 -157.234375 C 39.695312 -150.304688 46.003906 -142.953125 55.484375 -135.171875 C 64.972656 -127.398438 78.351562 -119.4375 95.625 -111.28125 C 106.0625 -106.914062 115.878906 -101.976562 125.078125 -96.46875 C 134.273438 -90.96875 141.765625 -84.328125 147.546875 -76.546875 C 153.335938 -68.773438 156.234375 -59.289062 156.234375 -48.09375 C 156.234375 -40.507812 154.765625 -33.726562 151.828125 -27.75 C 148.890625 -21.769531 144.859375 -16.691406 139.734375 -12.515625 C 131.578125 -6.253906 121.804688 -2.269531 110.421875 -0.5625 C 99.035156 1.132812 87.128906 0.753906 74.703125 -1.703125 C 62.273438 -4.171875 50.367188 -8.675781 38.984375 -15.21875 C 27.597656 -21.769531 17.921875 -30.164062 9.953125 -40.40625 L 9.953125 -79.96875 C 16.972656 -62.320312 25.796875 -47.617188 36.421875 -35.859375 C 47.046875 -24.097656 58.476562 -15.367188 70.71875 -9.671875 C 82.957031 -3.984375 94.910156 -1.519531 106.578125 -2.28125 C 118.242188 -3.039062 128.535156 -7.210938 137.453125 -14.796875 C 142.203125 -18.785156 145.191406 -23.484375 146.421875 -28.890625 C 147.648438 -34.296875 146.507812 -40.316406 143 -46.953125 C 139.5 -53.597656 133.050781 -60.570312 123.65625 -67.875 C 114.257812 -75.175781 101.3125 -82.625 84.8125 -90.21875 C 74.5625 -94.769531 64.832031 -99.796875 55.625 -105.296875 C 46.425781 -110.796875 38.929688 -117.34375 33.140625 -124.9375 C 27.359375 -132.53125 24.46875 -141.734375 24.46875 -152.546875 Z M 24.46875 -152.546875 "/></g></g></g></g></g><g transform="matrix(1, 0, 0, 1, 68, 0)"><g clip-path="url(#9bf0ef2bf0)"><g clip-path="url(#c25616820d)"><g fill="#141414" fill-opacity="1"><g transform="translate(1.045154, 264.91152)"><g><path d="M 253.40625 36.609375 C 244.1875 42.847656 235.035156 48 225.953125 52.0625 C 216.867188 56.132812 206.492188 58.171875 194.828125 58.171875 C 185.878906 58.171875 177.539062 56.742188 169.8125 53.890625 C 162.082031 51.046875 154.554688 47.453125 147.234375 43.109375 C 139.921875 38.773438 132.671875 34.097656 125.484375 29.078125 C 118.296875 24.066406 110.835938 19.390625 103.109375 15.046875 C 95.378906 10.710938 87.039062 7.117188 78.09375 4.265625 C 69.144531 1.421875 59.382812 0 48.8125 0 L 13.421875 0 C 19.660156 -1.351562 23.796875 -4.671875 25.828125 -9.953125 C 27.859375 -15.242188 28.875 -20.601562 28.875 -26.03125 L 28.875 -174.90625 C 28.875 -180.320312 27.789062 -185.40625 25.625 -190.15625 C 23.457031 -194.90625 19.390625 -197.957031 13.421875 -199.3125 L 67.921875 -199.3125 C 62.234375 -197.957031 58.300781 -194.90625 56.125 -190.15625 C 53.957031 -185.40625 52.875 -180.320312 52.875 -174.90625 L 52.875 -3.65625 C 66.707031 -3.113281 80.128906 -0.335938 93.140625 4.671875 C 106.160156 9.691406 118.972656 15.179688 131.578125 21.140625 C 144.191406 27.109375 156.9375 32.460938 169.8125 37.203125 C 182.695312 41.953125 195.914062 44.328125 209.46875 44.328125 C 217.332031 44.328125 224.65625 43.582031 231.4375 42.09375 C 238.21875 40.601562 245.132812 38.097656 252.1875 34.578125 Z M 253.40625 36.609375 "/></g></g></g></g></g></g><g clip-path="url(#e9bf0809b7)"><g transform="matrix(1, 0, 0, 1, 0, 141)"><g clip-path="url(#127bd1330a)"><g clip-path="url(#2335abfe19)"><path fill="#ffffff" d="M 0 0.238281 L 374.988281 0.238281 L 374.988281 46.5 L 0 46.5 Z M 0 0.238281 " fill-opacity="1" fill-rule="nonzero"/></g></g></g></g><g transform="matrix(1, 0, 0, 1, 73, 144)"><g clip-path="url(#3813b80915)"><g fill="#141414" fill-opacity="1"><g transform="translate(0.872267, 32.262647)"><g><path d="M 27.75 4.015625 C 26.738281 4.691406 25.734375 5.253906 24.734375 5.703125 C 23.742188 6.148438 22.613281 6.375 21.34375 6.375 C 20.363281 6.375 19.445312 6.21875 18.59375 5.90625 C 17.75 5.59375 16.925781 5.195312 16.125 4.71875 C 15.320312 4.25 14.523438 3.738281 13.734375 3.1875 C 12.953125 2.632812 12.132812 2.117188 11.28125 1.640625 C 10.4375 1.171875 9.523438 0.78125 8.546875 0.46875 C 7.566406 0.15625 6.5 0 5.34375 0 L 1.46875 0 C 2.15625 -0.144531 2.609375 -0.503906 2.828125 -1.078125 C 3.046875 -1.660156 3.15625 -2.25 3.15625 -2.84375 L 3.15625 -19.15625 C 3.15625 -19.75 3.035156 -20.304688 2.796875 -20.828125 C 2.566406 -21.347656 2.125 -21.679688 1.46875 -21.828125 L 7.4375 -21.828125 C 6.8125 -21.679688 6.378906 -21.347656 6.140625 -20.828125 C 5.910156 -20.304688 5.796875 -19.75 5.796875 -19.15625 L 5.796875 -0.40625 C 7.304688 -0.34375 8.773438 -0.0351562 10.203125 0.515625 C 11.628906 1.066406 13.03125 1.664062 14.40625 2.3125 C 15.789062 2.96875 17.1875 3.554688 18.59375 4.078125 C 20.007812 4.597656 21.457031 4.859375 22.9375 4.859375 C 23.800781 4.859375 24.601562 4.773438 25.34375 4.609375 C 26.082031 4.441406 26.84375 4.164062 27.625 3.78125 Z M 27.75 4.015625 "/></g></g></g><g fill="#141414" fill-opacity="1"><g transform="translate(11.828104, 32.262647)"><g><path d="M 18.125 -7.4375 C 18.125 -5.03125 17.5625 -3.148438 16.4375 -1.796875 C 15.3125 -0.453125 13.484375 0.21875 10.953125 0.21875 C 8.398438 0.21875 6.460938 -0.445312 5.140625 -1.78125 C 3.816406 -3.113281 3.15625 -5.070312 3.15625 -7.65625 L 3.15625 -19.109375 C 3.15625 -19.703125 3.050781 -20.257812 2.84375 -20.78125 C 2.644531 -21.300781 2.21875 -21.648438 1.5625 -21.828125 L 7.4375 -21.828125 C 6.8125 -21.648438 6.394531 -21.300781 6.1875 -20.78125 C 5.976562 -20.257812 5.875 -19.703125 5.875 -19.109375 L 5.875 -7.921875 C 5.875 -6.972656 5.984375 -6.0625 6.203125 -5.1875 C 6.429688 -4.3125 6.789062 -3.539062 7.28125 -2.875 C 7.769531 -2.207031 8.394531 -1.671875 9.15625 -1.265625 C 9.914062 -0.867188 10.828125 -0.671875 11.890625 -0.671875 C 12.929688 -0.671875 13.820312 -0.847656 14.5625 -1.203125 C 15.3125 -1.554688 15.921875 -2.035156 16.390625 -2.640625 C 16.867188 -3.253906 17.21875 -3.976562 17.4375 -4.8125 C 17.664062 -5.644531 17.78125 -6.535156 17.78125 -7.484375 L 17.78125 -18.578125 C 17.78125 -20.242188 16.960938 -21.328125 15.328125 -21.828125 L 20.53125 -21.828125 C 18.925781 -21.328125 18.125 -20.242188 18.125 -18.578125 Z M 18.125 -7.4375 "/></g></g></g><g fill="#141414" fill-opacity="1"><g transform="translate(33.695247, 32.262647)"><g><path d="M 5.171875 -1.828125 C 5.171875 -1.410156 5.296875 -1.03125 5.546875 -0.6875 C 5.796875 -0.34375 6.113281 -0.113281 6.5 0 L 1.875 0 C 2.113281 -0.0625 2.375 -0.203125 2.65625 -0.421875 C 2.9375 -0.640625 3.207031 -0.882812 3.46875 -1.15625 C 3.738281 -1.425781 3.992188 -1.703125 4.234375 -1.984375 C 4.472656 -2.265625 4.664062 -2.507812 4.8125 -2.71875 L 10.0625 -10.421875 L 4.546875 -18.890625 C 4.398438 -19.128906 4.207031 -19.40625 3.96875 -19.71875 C 3.726562 -20.03125 3.472656 -20.328125 3.203125 -20.609375 C 2.941406 -20.890625 2.664062 -21.140625 2.375 -21.359375 C 2.09375 -21.578125 1.820312 -21.734375 1.5625 -21.828125 L 8.15625 -21.828125 C 7.820312 -21.734375 7.582031 -21.535156 7.4375 -21.234375 C 7.289062 -20.941406 7.21875 -20.648438 7.21875 -20.359375 C 7.21875 -19.941406 7.363281 -19.484375 7.65625 -18.984375 L 11.8125 -12.65625 L 15.859375 -18.625 C 16.210938 -19.125 16.390625 -19.613281 16.390625 -20.09375 C 16.390625 -20.507812 16.25 -20.863281 15.96875 -21.15625 C 15.6875 -21.457031 15.351562 -21.679688 14.96875 -21.828125 L 19.59375 -21.828125 C 19.03125 -21.648438 18.488281 -21.269531 17.96875 -20.6875 C 17.445312 -20.113281 17.023438 -19.585938 16.703125 -19.109375 L 12.03125 -12.34375 L 18.578125 -2.359375 C 18.867188 -1.878906 19.222656 -1.398438 19.640625 -0.921875 C 20.054688 -0.453125 20.535156 -0.144531 21.078125 0 L 14.296875 0 C 14.628906 -0.09375 14.882812 -0.300781 15.0625 -0.625 C 15.238281 -0.945312 15.328125 -1.273438 15.328125 -1.609375 C 15.328125 -1.867188 15.28125 -2.117188 15.1875 -2.359375 C 15.101562 -2.597656 14.984375 -2.835938 14.828125 -3.078125 L 10.328125 -10.015625 L 5.796875 -3.46875 C 5.617188 -3.238281 5.46875 -2.976562 5.34375 -2.6875 C 5.226562 -2.40625 5.171875 -2.117188 5.171875 -1.828125 Z M 5.171875 -1.828125 "/></g></g></g><g fill="#141414" fill-opacity="1"><g transform="translate(56.319506, 32.262647)"><g><path d="M 18.125 -7.4375 C 18.125 -5.03125 17.5625 -3.148438 16.4375 -1.796875 C 15.3125 -0.453125 13.484375 0.21875 10.953125 0.21875 C 8.398438 0.21875 6.460938 -0.445312 5.140625 -1.78125 C 3.816406 -3.113281 3.15625 -5.070312 3.15625 -7.65625 L 3.15625 -19.109375 C 3.15625 -19.703125 3.050781 -20.257812 2.84375 -20.78125 C 2.644531 -21.300781 2.21875 -21.648438 1.5625 -21.828125 L 7.4375 -21.828125 C 6.8125 -21.648438 6.394531 -21.300781 6.1875 -20.78125 C 5.976562 -20.257812 5.875 -19.703125 5.875 -19.109375 L 5.875 -7.921875 C 5.875 -6.972656 5.984375 -6.0625 6.203125 -5.1875 C 6.429688 -4.3125 6.789062 -3.539062 7.28125 -2.875 C 7.769531 -2.207031 8.394531 -1.671875 9.15625 -1.265625 C 9.914062 -0.867188 10.828125 -0.671875 11.890625 -0.671875 C 12.929688 -0.671875 13.820312 -0.847656 14.5625 -1.203125 C 15.3125 -1.554688 15.921875 -2.035156 16.390625 -2.640625 C 16.867188 -3.253906 17.21875 -3.976562 17.4375 -4.8125 C 17.664062 -5.644531 17.78125 -6.535156 17.78125 -7.484375 L 17.78125 -18.578125 C 17.78125 -20.242188 16.960938 -21.328125 15.328125 -21.828125 L 20.53125 -21.828125 C 18.925781 -21.328125 18.125 -20.242188 18.125 -18.578125 Z M 18.125 -7.4375 "/></g></g></g><g fill="#141414" fill-opacity="1"><g transform="translate(78.186649, 32.262647)"><g><path d="M 5.875 -2.765625 C 5.875 -2.171875 5.992188 -1.613281 6.234375 -1.09375 C 6.472656 -0.570312 6.890625 -0.207031 7.484375 0 L 1.609375 0 C 2.234375 -0.207031 2.644531 -0.582031 2.84375 -1.125 C 3.050781 -1.675781 3.15625 -2.25 3.15625 -2.84375 L 3.15625 -19.109375 C 3.15625 -19.703125 3.050781 -20.257812 2.84375 -20.78125 C 2.644531 -21.300781 2.234375 -21.648438 1.609375 -21.828125 L 9.171875 -21.828125 C 10.242188 -21.828125 11.289062 -21.707031 12.3125 -21.46875 C 13.34375 -21.226562 14.257812 -20.847656 15.0625 -20.328125 C 15.863281 -19.816406 16.507812 -19.132812 17 -18.28125 C 17.488281 -17.4375 17.734375 -16.40625 17.734375 -15.1875 C 17.734375 -13.4375 17.203125 -12.007812 16.140625 -10.90625 C 15.085938 -9.8125 13.742188 -9.070312 12.109375 -8.6875 L 16.171875 -2.140625 C 16.492188 -1.660156 16.878906 -1.226562 17.328125 -0.84375 C 17.773438 -0.457031 18.25 -0.175781 18.75 0 L 14.609375 0 L 9.3125 -8.59375 L 5.875 -8.59375 Z M 5.875 -8.90625 L 8.90625 -8.90625 C 10.78125 -8.90625 12.257812 -9.484375 13.34375 -10.640625 C 14.425781 -11.804688 14.96875 -13.320312 14.96875 -15.1875 C 14.96875 -17.144531 14.445312 -18.679688 13.40625 -19.796875 C 12.363281 -20.910156 10.863281 -21.46875 8.90625 -21.46875 L 5.875 -21.46875 Z M 5.875 -8.90625 "/></g></g></g><g fill="#141414" fill-opacity="1"><g transform="translate(98.539569, 32.262647)"><g><path d="M 12.03125 -2.765625 C 12.03125 -2.171875 12.140625 -1.613281 12.359375 -1.09375 C 12.585938 -0.570312 13.007812 -0.207031 13.625 0 L 7.75 0 C 8.375 -0.207031 8.789062 -0.578125 9 -1.109375 C 9.207031 -1.648438 9.3125 -2.226562 9.3125 -2.84375 L 9.3125 -9.53125 L 3.921875 -19.375 C 3.679688 -19.851562 3.359375 -20.34375 2.953125 -20.84375 C 2.554688 -21.351562 2.109375 -21.679688 1.609375 -21.828125 L 7.625 -21.828125 C 7.320312 -21.679688 7.085938 -21.472656 6.921875 -21.203125 C 6.765625 -20.929688 6.6875 -20.632812 6.6875 -20.3125 C 6.6875 -19.925781 6.789062 -19.554688 7 -19.203125 L 11.71875 -10.375 L 16 -18.578125 C 16.113281 -18.785156 16.207031 -19 16.28125 -19.21875 C 16.351562 -19.445312 16.390625 -19.675781 16.390625 -19.90625 C 16.390625 -20.320312 16.265625 -20.707031 16.015625 -21.0625 C 15.765625 -21.425781 15.429688 -21.679688 15.015625 -21.828125 L 19.515625 -21.828125 C 18.972656 -21.648438 18.425781 -21.265625 17.875 -20.671875 C 17.332031 -20.078125 16.941406 -19.523438 16.703125 -19.015625 L 12.03125 -10.109375 Z M 12.03125 -2.765625 "/></g></g></g><g fill="#141414" fill-opacity="1"><g transform="translate(119.560529, 32.262647)"><g/></g></g><g fill="#141414" fill-opacity="1"><g transform="translate(130.427301, 32.262647)"><g><path d="M 20.890625 -1.515625 C 20.890625 -0.0234375 20.648438 1.320312 20.171875 2.53125 C 19.703125 3.75 19.03125 4.789062 18.15625 5.65625 C 17.28125 6.519531 16.234375 7.1875 15.015625 7.65625 C 13.796875 8.132812 12.441406 8.375 10.953125 8.375 C 9.617188 8.375 8.34375 8.164062 7.125 7.75 C 5.90625 7.332031 4.835938 6.726562 3.921875 5.9375 C 3.003906 5.15625 2.269531 4.195312 1.71875 3.0625 C 1.164062 1.9375 0.890625 0.664062 0.890625 -0.75 C 0.890625 -2.125 1.125 -3.300781 1.59375 -4.28125 C 2.070312 -5.257812 2.71875 -6.066406 3.53125 -6.703125 C 4.351562 -7.335938 5.3125 -7.8125 6.40625 -8.125 C 7.507812 -8.4375 8.6875 -8.59375 9.9375 -8.59375 L 9.9375 -8.421875 C 8.863281 -8.359375 7.875 -8.097656 6.96875 -7.640625 C 6.0625 -7.179688 5.289062 -6.578125 4.65625 -5.828125 C 4.019531 -5.085938 3.519531 -4.242188 3.15625 -3.296875 C 2.800781 -2.347656 2.625 -1.335938 2.625 -0.265625 C 2.625 0.953125 2.820312 2.054688 3.21875 3.046875 C 3.625 4.046875 4.179688 4.898438 4.890625 5.609375 C 5.609375 6.328125 6.472656 6.878906 7.484375 7.265625 C 8.492188 7.648438 9.609375 7.84375 10.828125 7.84375 C 13.234375 7.84375 15.109375 7.132812 16.453125 5.71875 C 17.804688 4.3125 18.484375 2.40625 18.484375 0 C 18.484375 -1.28125 18.191406 -2.445312 17.609375 -3.5 C 17.035156 -4.550781 16.3125 -5.546875 15.4375 -6.484375 C 14.5625 -7.421875 13.609375 -8.316406 12.578125 -9.171875 C 11.554688 -10.035156 10.609375 -10.894531 9.734375 -11.75 C 8.859375 -12.613281 8.128906 -13.503906 7.546875 -14.421875 C 6.972656 -15.347656 6.6875 -16.347656 6.6875 -17.421875 C 6.6875 -18.191406 6.828125 -18.890625 7.109375 -19.515625 C 7.390625 -20.140625 7.773438 -20.65625 8.265625 -21.0625 C 8.753906 -21.476562 9.320312 -21.796875 9.96875 -22.015625 C 10.625 -22.242188 11.328125 -22.359375 12.078125 -22.359375 C 12.367188 -22.359375 12.65625 -22.328125 12.9375 -22.265625 C 13.21875 -22.210938 13.492188 -22.15625 13.765625 -22.09375 L 14.875 -21.734375 C 15.46875 -21.554688 16.035156 -21.46875 16.578125 -21.46875 C 16.984375 -21.46875 17.304688 -21.632812 17.546875 -21.96875 L 17.234375 -16.796875 C 17.117188 -17.390625 16.910156 -18 16.609375 -18.625 C 16.316406 -19.25 15.941406 -19.8125 15.484375 -20.3125 C 15.023438 -20.820312 14.503906 -21.242188 13.921875 -21.578125 C 13.335938 -21.921875 12.707031 -22.09375 12.03125 -22.09375 C 10.925781 -22.09375 9.976562 -21.796875 9.1875 -21.203125 C 8.40625 -20.609375 8.015625 -19.71875 8.015625 -18.53125 C 8.015625 -17.613281 8.332031 -16.726562 8.96875 -15.875 C 9.613281 -15.03125 10.410156 -14.195312 11.359375 -13.375 C 12.304688 -12.5625 13.335938 -11.734375 14.453125 -10.890625 C 15.566406 -10.046875 16.597656 -9.144531 17.546875 -8.1875 C 18.503906 -7.238281 19.300781 -6.210938 19.9375 -5.109375 C 20.570312 -4.015625 20.890625 -2.816406 20.890625 -1.515625 Z M 20.890625 -1.515625 "/></g></g></g><g fill="#141414" fill-opacity="1"><g transform="translate(152.517131, 32.262647)"><g><path d="M 5.875 -2.765625 C 5.875 -2.171875 5.984375 -1.613281 6.203125 -1.09375 C 6.429688 -0.570312 6.84375 -0.207031 7.4375 0 L 1.5625 0 C 2.21875 -0.207031 2.644531 -0.570312 2.84375 -1.09375 C 3.050781 -1.613281 3.15625 -2.171875 3.15625 -2.765625 L 3.15625 -19.109375 C 3.15625 -19.703125 3.050781 -20.25 2.84375 -20.75 C 2.644531 -21.257812 2.21875 -21.617188 1.5625 -21.828125 L 7.4375 -21.828125 C 6.8125 -21.617188 6.394531 -21.257812 6.1875 -20.75 C 5.976562 -20.25 5.875 -19.703125 5.875 -19.109375 L 5.875 -11.359375 L 16.171875 -11.359375 L 16.171875 -19.109375 C 16.171875 -19.703125 16.066406 -20.25 15.859375 -20.75 C 15.648438 -21.257812 15.234375 -21.617188 14.609375 -21.828125 L 20.484375 -21.828125 C 19.835938 -21.617188 19.410156 -21.257812 19.203125 -20.75 C 18.992188 -20.25 18.890625 -19.703125 18.890625 -19.109375 L 18.890625 -2.84375 C 18.890625 -2.25 18.992188 -1.675781 19.203125 -1.125 C 19.410156 -0.582031 19.835938 -0.207031 20.484375 0 L 14.609375 0 C 15.234375 -0.207031 15.648438 -0.582031 15.859375 -1.125 C 16.066406 -1.675781 16.171875 -2.25 16.171875 -2.84375 L 16.171875 -11 L 5.875 -11 Z M 5.875 -2.765625 "/></g></g></g><g fill="#141414" fill-opacity="1"><g transform="translate(174.562417, 32.262647)"><g><path d="M 23.609375 -10.90625 C 23.609375 -9.394531 23.316406 -7.972656 22.734375 -6.640625 C 22.160156 -5.304688 21.375 -4.140625 20.375 -3.140625 C 19.382812 -2.140625 18.21875 -1.347656 16.875 -0.765625 C 15.539062 -0.191406 14.117188 0.09375 12.609375 0.09375 C 11.085938 0.09375 9.660156 -0.191406 8.328125 -0.765625 C 6.992188 -1.347656 5.828125 -2.140625 4.828125 -3.140625 C 3.835938 -4.140625 3.050781 -5.304688 2.46875 -6.640625 C 1.894531 -7.972656 1.609375 -9.394531 1.609375 -10.90625 C 1.609375 -12.425781 1.894531 -13.851562 2.46875 -15.1875 C 3.050781 -16.519531 3.835938 -17.6875 4.828125 -18.6875 C 5.828125 -19.6875 6.992188 -20.472656 8.328125 -21.046875 C 9.660156 -21.628906 11.085938 -21.921875 12.609375 -21.921875 C 14.117188 -21.921875 15.539062 -21.628906 16.875 -21.046875 C 18.21875 -20.472656 19.382812 -19.6875 20.375 -18.6875 C 21.375 -17.6875 22.160156 -16.519531 22.734375 -15.1875 C 23.316406 -13.851562 23.609375 -12.425781 23.609375 -10.90625 Z M 4.671875 -11.453125 C 4.671875 -10.296875 4.863281 -9.054688 5.25 -7.734375 C 5.632812 -6.410156 6.191406 -5.191406 6.921875 -4.078125 C 7.648438 -2.960938 8.539062 -2.039062 9.59375 -1.3125 C 10.65625 -0.582031 11.851562 -0.21875 13.1875 -0.21875 C 14.4375 -0.21875 15.535156 -0.546875 16.484375 -1.203125 C 17.429688 -1.859375 18.21875 -2.691406 18.84375 -3.703125 C 19.46875 -4.710938 19.9375 -5.8125 20.25 -7 C 20.5625 -8.1875 20.71875 -9.3125 20.71875 -10.375 C 20.71875 -11.59375 20.53125 -12.851562 20.15625 -14.15625 C 19.78125 -15.46875 19.222656 -16.671875 18.484375 -17.765625 C 17.742188 -18.867188 16.84375 -19.773438 15.78125 -20.484375 C 14.726562 -21.203125 13.503906 -21.5625 12.109375 -21.5625 C 10.867188 -21.5625 9.785156 -21.234375 8.859375 -20.578125 C 7.941406 -19.921875 7.171875 -19.085938 6.546875 -18.078125 C 5.921875 -17.078125 5.453125 -15.988281 5.140625 -14.8125 C 4.828125 -13.632812 4.671875 -12.515625 4.671875 -11.453125 Z M 4.671875 -11.453125 "/></g></g></g><g fill="#141414" fill-opacity="1"><g transform="translate(199.725223, 32.262647)"><g><path d="M 5.875 -2.765625 C 5.875 -2.171875 5.984375 -1.613281 6.203125 -1.09375 C 6.429688 -0.570312 6.84375 -0.207031 7.4375 0 L 1.5625 0 C 2.21875 -0.207031 2.644531 -0.582031 2.84375 -1.125 C 3.050781 -1.675781 3.15625 -2.25 3.15625 -2.84375 L 3.15625 -19.0625 C 3.15625 -19.65625 3.046875 -20.21875 2.828125 -20.75 C 2.609375 -21.289062 2.1875 -21.648438 1.5625 -21.828125 L 9.578125 -21.828125 C 10.671875 -21.828125 11.707031 -21.707031 12.6875 -21.46875 C 13.675781 -21.226562 14.539062 -20.847656 15.28125 -20.328125 C 16.019531 -19.816406 16.601562 -19.132812 17.03125 -18.28125 C 17.46875 -17.4375 17.6875 -16.40625 17.6875 -15.1875 C 17.6875 -14.03125 17.441406 -13.023438 16.953125 -12.171875 C 16.460938 -11.328125 15.816406 -10.640625 15.015625 -10.109375 C 14.210938 -9.578125 13.304688 -9.179688 12.296875 -8.921875 C 11.285156 -8.671875 10.257812 -8.546875 9.21875 -8.546875 L 5.875 -8.546875 Z M 5.875 -8.90625 L 8.8125 -8.90625 C 10.75 -8.90625 12.25 -9.476562 13.3125 -10.625 C 14.382812 -11.769531 14.921875 -13.289062 14.921875 -15.1875 C 14.921875 -17.144531 14.394531 -18.679688 13.34375 -19.796875 C 12.289062 -20.910156 10.78125 -21.46875 8.8125 -21.46875 L 5.875 -21.46875 Z M 5.875 -8.90625 "/></g></g></g></g></g></svg>